<svg id="bag" xmlns="http://www.w3.org/2000/svg" width="12.574" height="17.034" viewBox="0 0 12.574 17.034">
  <g id="Group_2" data-name="Group 2" transform="translate(0)">
    <path id="Path_10" data-name="Path 10" d="M38.846,4.715h-.627v-.9a3.81,3.81,0,0,0-7.621,0v.9h-.627a1.852,1.852,0,0,0-1.85,1.85v8.62a1.851,1.851,0,0,0,1.85,1.85h8.875a1.852,1.852,0,0,0,1.849-1.85V6.565A1.852,1.852,0,0,0,38.846,4.715ZM31.8,3.81a2.6,2.6,0,0,1,5.207,0v.9H31.8Zm7.684,11.374a.644.644,0,0,1-.643.643H29.97a.644.644,0,0,1-.643-.643V6.565a.644.644,0,0,1,.643-.643H30.6v.846a.922.922,0,1,0,1.207,0V5.922h5.207v.846a.922.922,0,1,0,1.207,0V5.922h.627a.644.644,0,0,1,.643.643v8.62Z" transform="translate(-28.121)" fill="#fff"/>
  </g>
</svg>
