<svg xmlns="http://www.w3.org/2000/svg" width="26" height="26" viewBox="0 0 26 26">
  <g id="Group_72" data-name="Group 72" transform="translate(-120 -6952)">
    <circle id="Ellipse_8" data-name="Ellipse 8" cx="13" cy="13" r="13" transform="translate(120 6952)" fill="#fff" opacity="0.2"/>
    <path id="Icon_material-call" data-name="Icon material-call" d="M7.024,9.931a10.561,10.561,0,0,0,4.594,4.594l1.534-1.534a.693.693,0,0,1,.711-.167,7.953,7.953,0,0,0,2.489.4.7.7,0,0,1,.7.7v2.433a.7.7,0,0,1-.7.7A11.851,11.851,0,0,1,4.5,5.2a.7.7,0,0,1,.7-.7h2.44a.7.7,0,0,1,.7.7,7.92,7.92,0,0,0,.4,2.489.7.7,0,0,1-.174.711L7.024,9.931Z" transform="translate(122.5 6954.5)" fill="#fff"/>
  </g>
</svg>
