<svg xmlns="http://www.w3.org/2000/svg" width="106.604" height="62.9" viewBox="0 0 106.604 62.9">
  <g id="_993_720x" data-name="993_720x" transform="translate(-43.43 -38.998)">
    <g id="_d60015ff" data-name="#d60015ff" transform="translate(58.756 38.998)">
      <path id="Path_1" data-name="Path 1" d="M108.11,39c1.738,0,3.477,0,5.218,0-1.763,9.635-3.42,19.29-5.147,28.931-1.132,6.577-2.378,13.131-3.45,19.716-1.744.011-3.488,0-5.232.005Q103.8,63.327,108.11,39Z" transform="translate(-99.5 -38.998)" fill="#d60015"/>
      <path id="Path_2" data-name="Path 2" d="M304.6,73.779c2.034-.06,4.4.189,5.743,1.922a5.88,5.88,0,0,1-.276,6.9c-1.8,1.842-4.527,2.138-6.951,2.427-.153.005-.459.016-.612.019q.184-.984.394-1.96l-.087.9a5.042,5.042,0,0,0,2.791-2.512c.886-2.124.727-4.907-1.1-6.5-.049.126-.15.372-.2.5C304.383,74.911,304.465,74.339,304.6,73.779Z" transform="translate(-247.011 -64.266)" fill="#d60015"/>
      <path id="Path_3" data-name="Path 3" d="M223.954,75.693c1.719-.115,3.444-.079,5.166-.041-.44,3.042-1.085,6.049-1.544,9.089H222.36C222.888,81.723,223.426,78.711,223.954,75.693Z" transform="translate(-188.777 -65.606)" fill="#d60015"/>
      <path id="Path_4" data-name="Path 4" d="M211.435,143.692c1.719-.118,3.441-.077,5.163-.044-.5,3.409-1.2,6.784-1.741,10.185H209.65C210.24,150.452,210.847,147.073,211.435,143.692Z" transform="translate(-179.541 -115.017)" fill="#d60015"/>
      <path id="Path_5" data-name="Path 5" d="M284.746,211.378a2.232,2.232,0,0,1,.271-1.238C285.309,210.452,285.26,211.4,284.746,211.378Z" transform="translate(-234.098 -163.359)" fill="#d60015"/>
    </g>
    <g id="_560000ff" data-name="#560000ff" transform="translate(63.988 38.998)">
      <path id="Path_6" data-name="Path 6" d="M127.237,39c1.905-.005,3.81,0,5.718,0q-4.313,24.335-8.613,48.669h32.126a10.924,10.924,0,0,0,1.331-.134c-.205.61-.888.328-1.348.4-10.48-.022-20.963.005-31.443-.014-2.077-.528-4.248-.156-6.369-.273,1.072-6.585,2.318-13.14,3.45-19.716C123.817,58.291,125.474,48.636,127.237,39Z" transform="translate(-118.64 -38.998)" fill="#560000"/>
      <path id="Path_7" data-name="Path 7" d="M289.984,73.057c1.881-.077,3.767-.066,5.65-.03,1.886.109,3.964.331,5.407,1.681,1.5,1.435,1.6,3.767,1.047,5.65a4.775,4.775,0,0,1-2.75,2.96c1.063,2.96,2.1,5.929,3.152,8.892a7.831,7.831,0,0,0,1.471-.175,16.3,16.3,0,0,0,6.814-4.732c-1.386,2.307-3.9,3.575-6.18,4.825,3.143.1,6.29,0,9.436.055a1.748,1.748,0,0,1-.64.719c-1.842,1.337-3.6,2.785-5.481,4.067-.033-.246-.1-.735-.134-.981-.6-.019-1.195-.027-1.79-.036-1.249,1.99-2.526,3.966-3.767,5.964-.309-1.011-.645-2.012-1.02-3,1.719-1.268,3.288-2.731,5.051-3.939-2.072.131-4.147.071-6.221.118-.134-.533-.262-1.063-.391-1.6a28.037,28.037,0,0,0-3.023.429c-.271.312-.224.782-.344,1.162-2.047-.03-4.1.014-6.145-.118.4.328.809.659,1.227.97-.484,0-.968.008-1.451.019-.129.651-.241,1.3-.344,1.957-1.143-.875-2.329-1.692-3.436-2.61-.1.4-.191.8-.3,1.2.063-.4.131-.8.2-1.2-1.175-1.1-2.709-1.818-3.69-3.108,3.808-.052,7.621-.014,11.429-.019,1.036-2.624,1.84-5.333,2.9-7.949a71.45,71.45,0,0,1-8.2.238c2.425-.29,5.153-.585,6.951-2.427a5.88,5.88,0,0,0,.276-6.9c-1.339-1.733-3.709-1.982-5.743-1.922l.044-.161m6.585,20.61c.989-.156,2-.2,2.971-.451-.457-1.725-.976-3.433-1.369-5.177C297.594,89.9,297.17,91.812,296.569,93.668Z" transform="translate(-237.586 -63.706)" fill="#560000"/>
      <path id="Path_8" data-name="Path 8" d="M204.04,76.436c.06-.465.139-.924.23-1.38,5.781.005,11.562-.038,17.344-.036-.569,3.089-1.014,6.221-1.692,9.275-1.886.038-3.772,0-5.658.014.459-3.04,1.1-6.046,1.544-9.089-1.722-.038-3.447-.074-5.166.041-2.1.1-4.207.025-6.312.041C204.231,75.678,204.13,76.056,204.04,76.436Z" transform="translate(-180.696 -65.173)" fill="#560000"/>
      <path id="Path_9" data-name="Path 9" d="M386.65,115.226a22.288,22.288,0,0,0,1.987-3.676A8.42,8.42,0,0,1,386.65,115.226Z" transform="translate(-313.391 -91.718)" fill="#560000"/>
      <path id="Path_10" data-name="Path 10" d="M192.14,144.182c.052-.374.115-.746.18-1.118,5.789,0,11.579-.041,17.366-.036-.585,3.455-1.238,6.9-1.807,10.357-1.913.046-3.832.011-5.746.022.538-3.4,1.244-6.776,1.741-10.185-1.722-.033-3.444-.074-5.163.044-2.113.1-4.231.019-6.344.046C192.288,143.6,192.211,143.892,192.14,144.182Z" transform="translate(-172.049 -114.592)" fill="#560000"/>
      <path id="Path_11" data-name="Path 11" d="M314.1,157.87c.806.656,1.635,1.285,2.43,1.957a13.023,13.023,0,0,1-.823,3.294,1.717,1.717,0,0,1-2.457-.011,6.59,6.59,0,0,1,.112-1.607,6.852,6.852,0,0,0,.3,1.361c.1-.536.2-1.066.276-1.6a5.869,5.869,0,0,1-.3-1.1C313.82,159.406,313.975,158.641,314.1,157.87Z" transform="translate(-260.053 -125.377)" fill="#560000"/>
      <path id="Path_12" data-name="Path 12" d="M337.31,175.305l.763-.645c.29.241.577.481.866.727.038.134.118.4.156.538A3.376,3.376,0,0,1,337.31,175.305Z" transform="translate(-277.538 -137.577)" fill="#560000"/>
      <path id="Path_13" data-name="Path 13" d="M319.933,179.019c.4-.011.793-.019,1.189-.019.831,3.313,1.872,6.579,2.578,9.922a12.809,12.809,0,0,1-2.321-1.621c-2.515-1.889-4.98-3.846-7.509-5.718-2.725,2.072-5.437,4.158-8.159,6.232A5.463,5.463,0,0,1,304,188.906c.73-2.769,1.419-5.552,2.269-8.285l.131-.358a6.174,6.174,0,0,0,2.955-.159c-.238.664-.476,1.326-.7,2a33.5,33.5,0,0,0,3.031-2.561,4.734,4.734,0,0,0,4.718.374c.943.7,1.807,1.5,2.723,2.241-.2-.6-.413-1.189-.626-1.779l.582-.014C319.389,179.932,319.66,179.473,319.933,179.019Z" transform="translate(-253.333 -140.731)" fill="#560000"/>
    </g>
    <g id="_ffffffff" data-name="#ffffffff" transform="translate(43.43 38.998)">
      <path id="Path_14" data-name="Path 14" d="M148.113,39q22.272,0,44.544,0c4.212.027,8.643.67,12.2,3.092a11.592,11.592,0,0,1,4.928,7.536,18.6,18.6,0,0,1-.741,9.2,22.288,22.288,0,0,1-1.987,3.676c-.019.022-.055.068-.071.09a16.3,16.3,0,0,1-6.814,4.732,7.831,7.831,0,0,1-1.471.175c-1.055-2.963-2.088-5.932-3.152-8.892a4.775,4.775,0,0,0,2.75-2.96c.549-1.883.451-4.215-1.047-5.65-1.443-1.35-3.521-1.572-5.407-1.681-1.883-.036-3.769-.046-5.65.03l-.044.161c-.131.56-.213,1.132-.3,1.7-.454,2.537-.927,5.073-1.4,7.607q-.209.976-.394,1.96c.153,0,.459-.014.612-.019a71.449,71.449,0,0,0,8.2-.238c-1.061,2.616-1.864,5.325-2.9,7.949-3.808.005-7.621-.033-11.429.019.981,1.29,2.515,2.006,3.69,3.108-.068.4-.137.8-.2,1.2-.861,4.655-1.613,9.337-2.548,13.976a2.232,2.232,0,0,0-.271,1.238c.005.12.014.361.019.481-2.091,0-4.188-.074-6.276.036a10.926,10.926,0,0,1-1.331.134H139.5Q143.8,63.335,148.113,39m9.029,11.262c-.489,2.619-.918,5.251-1.419,7.87,2.143.005,4.283,0,6.426,0h5.215c1.886-.014,3.772.025,5.658-.014.678-3.053,1.123-6.186,1.692-9.275-5.781,0-11.562.041-17.344.036-.09.456-.169.916-.23,1.38M153.889,68.59q-.812,4.609-1.588,9.225h11.582c1.913-.011,3.832.025,5.746-.022.569-3.458,1.222-6.9,1.807-10.357-5.787-.005-11.576.036-17.366.036C154,67.843,153.941,68.215,153.889,68.59Z" transform="translate(-113.24 -39)" fill="#fff"/>
      <path id="Path_15" data-name="Path 15" d="M334.42,133.648c.6-1.856,1.025-3.767,1.6-5.628.394,1.744.913,3.452,1.369,5.177C336.418,133.449,335.41,133.492,334.42,133.648Z" transform="translate(-254.879 -103.687)" fill="#fff"/>
      <path id="Path_16" data-name="Path 16" d="M307.831,156.968c.484-.011.968-.022,1.451-.019l.271.044.011.208c-.126.771-.282,1.536-.462,2.3-.1.446-.186.891-.276,1.337a6.587,6.587,0,0,0-.112,1.607,1.717,1.717,0,0,0,2.457.011,13.02,13.02,0,0,0,.823-3.294q.213-1.082.377-2.173c.577-.016,1.156-.025,1.736-.03-.353,1.719-.569,3.466-.973,5.174a3.39,3.39,0,0,1-1.6,1.952,6.174,6.174,0,0,1-2.955.159l-.131.358c.268-.713-.771-.683-1.02-1.192-.957-1.339-.022-3.018.055-4.48C307.591,158.272,307.7,157.619,307.831,156.968Z" transform="translate(-234.957 -124.708)" fill="#fff"/>
      <path id="Path_17" data-name="Path 17" d="M333.761,157.834a3.482,3.482,0,0,1,4.7.055q-.57.467-1.134.932c-.547-.342-1.23-.727-1.87-.369a.765.765,0,0,0-.47,1.044c.858.645,2.211.683,2.712,1.76a2.184,2.184,0,0,1-.872,2.632,4.734,4.734,0,0,1-4.718-.374,3.281,3.281,0,0,1,1.17-1.238l.251.159a3.376,3.376,0,0,0,1.785.62c-.038-.134-.118-.4-.156-.538.232.118.47.232.711.339.044-.243.129-.733.169-.976-.528-.705-1.52-.719-2.2-1.225A1.872,1.872,0,0,1,333.761,157.834Z" transform="translate(-253.201 -124.708)" fill="#fff"/>
      <path id="Path_18" data-name="Path 18" d="M356.524,156.97c.6.008,1.195.016,1.79.036.036.246.1.735.134.981.366,2.129.771,4.253,1.195,6.372q-.906,0-1.807.008c-.1-.454-.189-.908-.273-1.361q-.824-.021-1.648-.014c-.4,0-.793.008-1.189.019-.273.454-.544.913-.853,1.342l-.582.014-1.41-.011q.443-.709.877-1.421c1.241-2,2.517-3.974,3.767-5.964m-1.05,4.644c.634.011,1.271.011,1.908.011-.117-.847-.243-1.692-.355-2.539C356.456,159.892,355.975,160.759,355.474,161.614Z" transform="translate(-267.567 -124.723)" fill="#fff"/>
      <path id="Path_19" data-name="Path 19" d="M44.652,244c1.416,0,2.829-.008,4.245.008-.046.129-.137.385-.183.514-1.156.063-2.312.005-3.469.025-.134.82-.271,1.643-.424,2.46,1.132.005,2.263-.025,3.395.033-.049.128-.145.391-.194.519-1.1-.011-2.206-.008-3.31,0-.153.91-.309,1.818-.476,2.728,1.271.008,2.539-.022,3.808.025l-.186.489c-1.473.079-2.952.011-4.428.033C43.84,248.551,44.261,246.277,44.652,244Z" transform="translate(-43.43 -187.961)" fill="#fff"/>
      <path id="Path_20" data-name="Path 20" d="M65.673,243.955l.711-.055c-.4,2.1-.771,4.207-1.14,6.314,1.1,0,2.192-.005,3.286.005l-.164.528c-1.309.041-2.616,0-3.925.014C64.855,248.492,65.241,246.221,65.673,243.955Z" transform="translate(-58.697 -187.892)" fill="#fff"/>
      <path id="Path_21" data-name="Path 21" d="M83.652,244c1.416,0,2.829-.008,4.242.008-.044.126-.134.383-.178.511-1.156.068-2.315.008-3.471.027-.134.82-.271,1.643-.424,2.46,1.137.011,2.274-.041,3.411.049-.055.126-.161.377-.216.5q-1.652-.012-3.3,0c-.153.91-.309,1.818-.476,2.728,1.268.008,2.539-.022,3.808.025-.041.118-.123.353-.164.467-1.476.128-2.969.019-4.45.055C82.837,248.551,83.264,246.277,83.652,244Z" transform="translate(-71.77 -187.961)" fill="#fff"/>
      <path id="Path_22" data-name="Path 22" d="M105.142,245.3c1.339-1.5,4.048-1.946,5.478-.336-.153.109-.456.331-.607.44-1.159-1.55-3.6-.913-4.546.533-.845,1.126-.984,3.075.325,3.912a2.955,2.955,0,0,0,3.69-.593l.558.353a3.8,3.8,0,0,1-5.174.336C103.587,248.7,103.978,246.5,105.142,245.3Z" transform="translate(-87.495 -187.929)" fill="#fff"/>
      <path id="Path_23" data-name="Path 23" d="M128.81,244.51c.03-.369.219-.541.566-.514,1.678-.005,3.359-.025,5.04.019-.046.12-.137.364-.18.484-.779.079-1.564.025-2.343.046-.383,2.083-.7,4.179-1.137,6.254l-.683.052q.558-3.157,1.126-6.314C130.4,244.54,129.605,244.546,128.81,244.51Z" transform="translate(-105.472 -187.955)" fill="#fff"/>
      <path id="Path_24" data-name="Path 24" d="M149.652,243.955c1.14.074,2.422-.262,3.439.407a1.654,1.654,0,0,1,.347,2.222c-.372.64-1.143.782-1.782,1.006.577,1.036.995,2.148,1.55,3.2l-.82,0c-.459-1.091-.987-2.151-1.416-3.256-.424-.019-.847-.027-1.268-.036-.205,1.085-.328,2.19-.59,3.264-.169.011-.511.038-.681.052.4-2.288.834-4.57,1.222-6.858m.593.544c-.142.82-.284,1.64-.443,2.46a6.149,6.149,0,0,0,2.586-.254,1.189,1.189,0,0,0,.29-1.848C151.989,244.3,151.054,244.546,150.245,244.5Z" transform="translate(-119.729 -187.917)" fill="#fff"/>
      <path id="Path_25" data-name="Path 25" d="M170.658,243.955l.711-.055c-.451,2.272-.787,4.57-1.263,6.836l-.686.052C169.838,248.511,170.226,246.229,170.658,243.955Z" transform="translate(-134.981 -187.892)" fill="#fff"/>
      <path id="Path_26" data-name="Path 26" d="M180.125,245.322c1.339-1.517,4.089-1.976,5.508-.325l-.6.361c-1.236-1.441-3.592-.883-4.559.579a3.175,3.175,0,0,0-.355,3.225,2.617,2.617,0,0,0,3.277.861c.607-.18,1.041-1.178,1.651-.421a3.794,3.794,0,0,1-5.158.366C178.589,248.733,178.966,246.522,180.125,245.322Z" transform="translate(-141.993 -187.93)" fill="#fff"/>
      <path id="Path_27" data-name="Path 27" d="M205.673,243.955l.711-.055c-.451,2.272-.787,4.568-1.263,6.836l-.681.055C204.845,248.511,205.244,246.229,205.673,243.955Z" transform="translate(-160.429 -187.892)" fill="#fff"/>
      <path id="Path_28" data-name="Path 28" d="M214.5,244l.754-.139q.722,3.452,1.462,6.9l-.73-.044c-.175-.623-.268-1.266-.391-1.9-1.192.011-2.386,0-3.578.014-.369.645-.754,1.282-1.143,1.916-.205-.005-.615-.022-.82-.027,1.533-2.206,2.96-4.483,4.445-6.716m-2.072,4.264c1.017.011,2.034.008,3.051.005q-.344-1.8-.7-3.592C213.9,245.8,213.234,247.08,212.433,248.264Z" transform="translate(-164.513 -187.863)" fill="#fff"/>
      <path id="Path_29" data-name="Path 29" d="M239.673,243.93c.219,0,.653,0,.872-.005,1,1.916,1.848,3.912,2.895,5.806.4-1.919.64-3.876,1.1-5.781.164-.011.495-.036.659-.049-.407,2.282-.823,4.562-1.225,6.845-.3,0-.607-.005-.9-.014-.908-1.927-1.842-3.843-2.761-5.765-.623,1.842-.7,3.868-1.167,5.768l-.7.055C238.855,248.5,239.271,246.218,239.673,243.93Z" transform="translate(-185.135 -187.892)" fill="#fff"/>
      <path id="Path_30" data-name="Path 30" d="M275.659,243.958c1.145.077,2.433-.265,3.45.415a1.663,1.663,0,0,1-.137,2.619c-.948.686-2.17.495-3.266.514-.2,1.085-.325,2.184-.588,3.256l-.678.057c.391-2.291.834-4.57,1.219-6.861m.582.544c-.137.823-.284,1.643-.451,2.46a5.36,5.36,0,0,0,2.624-.306,1.255,1.255,0,0,0,.268-1.84A4.512,4.512,0,0,0,276.241,244.5Z" transform="translate(-211.295 -187.919)" fill="#fff"/>
      <path id="Path_31" data-name="Path 31" d="M296.652,243.954c1.151.077,2.455-.273,3.469.432a1.653,1.653,0,0,1,.3,2.214c-.372.629-1.134.765-1.766.99.574,1.036.992,2.148,1.55,3.193-.208,0-.618,0-.823.005-.459-1.093-.99-2.154-1.419-3.256-.421-.019-.845-.03-1.266-.036-.205,1.085-.328,2.189-.59,3.264l-.681.052c.4-2.288.831-4.57,1.222-6.858m.593.544c-.142.82-.287,1.64-.443,2.46a6.062,6.062,0,0,0,2.6-.26,1.188,1.188,0,0,0,.273-1.848C298.983,244.3,298.051,244.545,297.245,244.5Z" transform="translate(-226.547 -187.916)" fill="#fff"/>
      <path id="Path_32" data-name="Path 32" d="M317.666,244c1.416,0,2.829-.008,4.242.008-.044.129-.134.383-.18.511-1.154.066-2.313.008-3.469.027-.134.82-.271,1.643-.424,2.46,1.134.008,2.269-.033,3.4.041-.052.128-.156.383-.205.511-1.1-.011-2.206-.008-3.3,0-.156.91-.312,1.82-.478,2.731,1.268.008,2.539-.022,3.808.025-.044.12-.129.355-.169.476-1.476.112-2.96.014-4.439.046C316.849,248.551,317.278,246.28,317.666,244Z" transform="translate(-241.821 -187.961)" fill="#fff"/>
      <path id="Path_33" data-name="Path 33" d="M338.652,243.955c1.145.074,2.433-.265,3.45.415a1.661,1.661,0,0,1-.142,2.621c-.949.683-2.168.492-3.261.511-.2,1.085-.325,2.187-.588,3.258-.169.011-.511.038-.681.052.4-2.288.831-4.57,1.222-6.858m.582.544q-.2,1.234-.451,2.46c.927-.049,2,.208,2.785-.426a1.439,1.439,0,0,0,.153-1.758A5.67,5.67,0,0,0,339.234,244.5Z" transform="translate(-257.067 -187.916)" fill="#fff"/>
      <path id="Path_34" data-name="Path 34" d="M367.692,248.554c.23-1.547.547-3.083.847-4.617l.705-.052c-.284,1.389-.514,2.785-.784,4.177a1.845,1.845,0,0,0,.459,1.818,2.112,2.112,0,0,0,3.152-1.082c.454-1.583.593-3.239.959-4.841l.708-.077c-.328,1.607-.541,3.239-.943,4.833a2.812,2.812,0,0,1-2.843,2.045A2.074,2.074,0,0,1,367.692,248.554Z" transform="translate(-279.043 -187.877)" fill="#fff"/>
      <path id="Path_35" data-name="Path 35" d="M392.134,245.849c.148-2.116,3.212-2.5,4.5-1.167-.23.126-.459.249-.689.372-.867-1.063-3.242-.631-3.048.938.514,1.364,2.895.916,3.015,2.6.044,2.4-3.392,2.835-4.732,1.26.208-.142.415-.284.626-.424a2.115,2.115,0,0,0,2.1.752,1.344,1.344,0,0,0,1.115-1.916C394.146,247.338,392.137,247.5,392.134,245.849Z" transform="translate(-296.124 -187.897)" fill="#fff"/>
      <path id="Path_36" data-name="Path 36" d="M413.5,244c.189-.036.569-.107.757-.145q.722,3.452,1.462,6.9l-.738-.044a17.3,17.3,0,0,0-.435-1.881c-1.173-.038-2.348-.005-3.521-.008-.375.64-.757,1.277-1.14,1.911-.208,0-.62-.005-.828-.005,1.52-2.214,2.958-4.486,4.442-6.724m-2.069,4.256c1.014.016,2.034.011,3.051.008q-.344-1.8-.7-3.594C412.9,245.8,412.234,247.077,411.433,248.261Z" transform="translate(-309.117 -187.863)" fill="#fff"/>
    </g>
  </g>
</svg>
