<svg xmlns="http://www.w3.org/2000/svg" width="20.94" height="29.736" viewBox="0 0 20.94 29.736">
  <g id="mouse" transform="translate(-75.726)">
    <g id="Group_7" data-name="Group 7" transform="translate(75.726)">
      <g id="Group_6" data-name="Group 6" transform="translate(0)">
        <path id="Path_37" data-name="Path 37" d="M86.2,0a10.565,10.565,0,0,0-10.47,10.634V19.1a10.471,10.471,0,1,0,20.94.033v-8.5A10.565,10.565,0,0,0,86.2,0Zm8.5,19.135a8.5,8.5,0,1,1-17-.033V10.634a8.5,8.5,0,1,1,17,0Z" transform="translate(-75.726)" fill="#fff"/>
      </g>
    </g>
    <g id="Group_9" data-name="Group 9" transform="translate(85.211 8.14)">
      <g id="Group_8" data-name="Group 8" transform="translate(0)">
        <path id="Path_38" data-name="Path 38" d="M240.031,140.15a.985.985,0,0,0-.985.985v3.446a.985.985,0,1,0,1.969,0v-3.446A.985.985,0,0,0,240.031,140.15Z" transform="translate(-239.046 -140.15)" fill="#fff"/>
      </g>
    </g>
  </g>
</svg>
